<svg xmlns="http://www.w3.org/2000/svg" width="32" height="32" fill="none" viewBox="0 0 32 32">
  <path fill="#00E791" fill-rule="evenodd" d="M32 15.32v1.175c0 2.19 0 4.264-1.613 5.95a5.53 5.53 0 0 1-4.107 1.548h-5.787v-3.061H14v-3.4h6.493V14.47H14v-3.4h6.52V8.009h5.787a5.554 5.554 0 0 1 4.113 1.513C32 11.174 32 13.192 32 15.32Zm-5.717 5.673a2.48 2.48 0 0 0 2.112-.917c.55-.658.605-1.77.605-4.143 0-2.757-.156-3.442-.605-4.016a2.48 2.48 0 0 0-2.106-.91H24v9.986h2.283ZM12 24H8.247l-2.91-5.87H3.345V24H0V8h6.296c3.086 0 5.262 2.03 5.262 5.003.05 1.939-1.039 3.72-2.767 4.532L12 24ZM5.862 11.008H3v3.979h2.862a1.924 1.924 0 0 0 1.541-.506c.413-.387.63-.936.593-1.498a1.932 1.932 0 0 0-.621-1.46 1.973 1.973 0 0 0-1.513-.515Z" clip-rule="evenodd"/>
</svg>
